<?xml version="1.0" standalone="no"?>
<!DOCTYPE svg PUBLIC "-//W3C//DTD SVG 20010904//EN"
 "http://www.w3.org/TR/2001/REC-SVG-20010904/DTD/svg10.dtd">
<svg version="1.0" xmlns="http://www.w3.org/2000/svg"
 width="700.000000pt" height="700.000000pt" viewBox="0 0 700.000000 700.000000"
 preserveAspectRatio="xMidYMid meet">
<metadata>
Created by potrace 1.14, written by Peter Selinger 2001-2017
</metadata>
<g transform="translate(0.000000,700.000000) scale(0.100000,-0.100000)"
fill="#000000" stroke="none">
<path d="M0 6195 l0 -734 1636 -2523 c1857 -2863 1854 -2858 1863 -2858 6 0
383 579 2433 3740 l1068 1645 0 733 0 732 -3500 0 -3500 0 0 -735z m6840 -94
l0 -699 -531 -818 c-293 -451 -909 -1399 -1369 -2109 -725 -1117 -991 -1527
-1347 -2073 -40 -62 -77 -110 -82 -107 -10 6 -332 500 -2125 3264 l-1196 1843
0 699 0 699 3325 0 3325 0 0 -699z"/>
<path d="M350 6115 l0 -505 3145 0 3145 0 0 505 0 505 -3145 0 -3145 0 0 -505z
m1795 211 c35 -27 65 -78 65 -111 0 -11 -11 -15 -44 -15 -38 0 -46 4 -52 23
-17 56 -78 81 -132 53 -40 -20 -52 -60 -52 -165 0 -68 4 -93 20 -118 37 -61
130 -52 159 15 13 29 19 32 58 32 38 0 43 -2 43 -24 0 -28 -35 -82 -73 -110
-21 -15 -46 -21 -100 -24 -90 -4 -139 21 -177 88 -22 40 -25 57 -25 150 0 96
2 109 27 151 39 66 92 91 179 87 54 -3 73 -9 104 -32z m515 -206 l0 -240 -45
0 -45 0 0 200 0 200 -65 0 c-55 0 -65 -3 -65 -17 0 -10 -5 -71 -10 -135 -13
-177 -42 -228 -137 -243 l-43 -7 0 40 c0 34 4 41 25 46 44 11 56 54 66 230 4
89 8 162 9 164 0 1 70 2 155 2 l155 0 0 -240z m190 0 l0 -240 -45 0 -45 0 0
240 0 240 45 0 45 0 0 -240z m490 40 l0 -200 31 0 c31 0 31 -1 25 -37 -3 -21
-6 -64 -6 -95 l0 -58 -45 0 -45 0 0 55 0 55 -145 0 -145 0 0 -55 0 -55 -45 0
-45 0 0 94 c0 90 1 95 23 98 42 6 67 80 79 235 6 76 12 144 14 151 2 9 42 12
154 12 l150 0 0 -200z m378 181 c70 -36 101 -92 109 -195 9 -117 -26 -200
-102 -243 -47 -26 -127 -31 -178 -9 -43 17 -93 76 -106 123 -14 49 -14 157 0
206 12 46 63 105 104 123 45 20 129 17 173 -5z m567 -221 l0 -235 -47 -3 -48
-3 0 200 0 201 -95 0 -95 0 0 -200 0 -200 -50 0 -50 0 0 240 0 240 193 -2 192
-3 0 -235z m185 82 l5 -152 90 152 90 153 48 3 47 3 0 -240 0 -241 -45 0 -45
0 -2 162 -3 161 -95 -159 -95 -159 -47 -3 -48 -3 0 241 0 241 48 -3 47 -3 5
-153z m718 116 l3 -38 -75 0 -76 0 0 -201 0 -200 -47 3 -48 3 -3 198 -2 197
-70 0 -70 0 0 40 0 40 193 -2 192 -3 3 -37z"/>
<path d="M3126 6268 c-3 -7 -7 -51 -10 -98 -4 -75 -18 -136 -41 -192 -6 -16 1
-18 84 -18 l91 0 0 160 0 160 -60 0 c-40 0 -62 -4 -64 -12z"/>
<path d="M3595 6281 c-34 -15 -54 -46 -65 -101 -28 -148 44 -261 137 -216 45
21 63 66 63 156 0 91 -19 136 -64 155 -40 17 -43 17 -71 6z"/>
<path d="M363 5438 c4 -12 255 -406 2235 -3503 872 -1365 892 -1395 901 -1395
5 0 73 102 153 228 1216 1901 2988 4675 2988 4678 0 2 -1413 4 -3141 4 -2509
0 -3140 -3 -3136 -12z m5428 -264 c-17 -66 -51 -189 -76 -274 -45 -153 -65
-190 -102 -190 -10 0 -13 6 -8 18 16 42 135 466 135 482 0 16 -11 14 -107 -17
-237 -75 -543 -140 -773 -164 -162 -17 -510 -6 -675 21 -172 27 -403 81 -556
129 l-124 39 -161 -54 c-182 -60 -391 -105 -604 -130 -205 -23 -627 -15 -825
15 -233 36 -489 102 -649 166 -16 7 -17 5 -11 -26 14 -64 127 -404 187 -564
164 -434 349 -820 565 -1180 76 -127 82 -141 66 -152 -9 -7 -22 -13 -29 -13
-23 0 -206 322 -358 630 -159 321 -288 635 -399 975 -64 193 -129 416 -124
422 2 2 24 -5 49 -16 145 -62 387 -124 638 -163 129 -20 182 -22 475 -22 293
0 346 2 475 22 248 39 486 100 665 172 27 11 43 8 140 -23 138 -45 312 -88
480 -121 541 -104 1030 -65 1640 131 62 20 91 26 93 17 2 -6 -11 -65 -27 -130z
m-2151 -279 c157 -53 317 -95 485 -127 105 -20 151 -23 365 -23 182 1 276 5
365 18 156 24 355 62 479 93 54 14 100 24 101 22 3 -3 -71 -257 -77 -263 -1
-1 -448 -170 -993 -375 -545 -205 -1156 -435 -1359 -511 -202 -76 -373 -139
-380 -139 -6 0 -32 51 -57 112 l-47 113 29 35 c35 42 37 73 4 105 -49 50 -169
26 -229 -45 -14 -17 -26 -40 -26 -50 0 -28 31 -58 74 -72 42 -14 38 -6 129
-236 l17 -42 -132 -65 -131 -65 -19 27 c-150 220 -376 665 -513 1007 -63 158
-166 448 -161 454 2 1 64 -14 139 -33 237 -60 444 -86 742 -92 231 -5 277 -3
408 16 189 27 391 79 526 135 58 24 111 44 116 45 6 0 71 -19 145 -44z m1935
-417 c-19 -62 -145 -368 -216 -526 -448 -988 -1046 -1707 -1745 -2096 -55 -31
-106 -56 -112 -56 -34 0 -311 191 -492 338 -125 103 -393 368 -512 507 -135
159 -376 481 -366 490 2 3 18 7 34 10 27 5 33 0 101 -97 227 -324 530 -649
823 -884 95 -77 308 -225 386 -269 l31 -17 119 67 c250 142 428 278 647 494
244 240 391 419 583 711 233 354 458 797 621 1225 29 74 45 103 63 112 35 18
42 16 35 -9z m-305 -112 c0 -19 -143 -346 -225 -513 -249 -510 -498 -869 -834
-1204 -192 -192 -348 -315 -541 -429 -177 -105 -152 -102 -265 -30 -338 212
-652 510 -943 895 -50 66 -88 123 -84 127 12 12 221 72 228 66 3 -4 30 -64 58
-135 l52 -128 -23 -34 c-39 -57 -27 -102 32 -121 75 -25 193 33 210 103 11 40
-17 75 -69 88 l-44 11 -45 116 c-24 65 -43 118 -42 120 4 5 2519 1071 2528
1071 4 1 7 -1 7 -3z m-2110 -2811 c0 -25 5 -45 10 -45 6 0 23 20 38 45 22 36
32 45 55 45 l28 0 -32 -47 c-18 -25 -32 -52 -32 -58 0 -6 14 -32 31 -58 18
-25 32 -48 32 -51 0 -3 -11 -6 -24 -6 -18 0 -31 11 -50 45 -15 25 -33 45 -41
45 -11 0 -15 -12 -15 -45 0 -38 -3 -45 -20 -45 -19 0 -20 7 -20 110 0 103 1
110 20 110 17 0 20 -7 20 -45z m330 -65 c0 -103 -1 -110 -20 -110 -18 0 -20 8
-22 93 -3 90 -4 92 -28 95 -25 3 -26 0 -37 -79 -11 -85 -25 -109 -65 -109 -24
0 -23 21 2 43 14 12 20 29 20 59 0 24 3 60 6 81 l7 37 68 0 69 0 0 -110z m100
58 l23 -53 23 53 c17 38 29 52 44 52 11 0 20 -3 20 -6 0 -14 -75 -181 -88
-196 -19 -22 -62 -24 -62 -3 0 8 7 15 15 15 7 0 18 8 24 17 7 13 -1 37 -30 95
-39 78 -39 78 -15 78 19 0 28 -10 46 -52z m280 38 c0 -11 -14 -16 -47 -18 -41
-3 -48 -6 -51 -25 -3 -20 1 -23 27 -23 66 0 101 -37 87 -93 -7 -31 -45 -47
-106 -47 l-50 0 0 110 0 110 70 0 c54 0 70 -3 70 -14z"/>
<path d="M3770 1450 c0 -36 20 -48 56 -31 18 8 24 18 22 34 -2 18 -10 23 -40
25 -36 3 -38 2 -38 -28z"/>
</g>
</svg>
